<svg width="395" height="395" viewBox="0 0 395 395" fill="none" xmlns="http://www.w3.org/2000/svg">
<g filter="url(#filter0_bd_1_3587)">
<ellipse cx="197.416" cy="193.697" rx="76.6283" ry="76.8525" fill="white" fill-opacity="0.28" shape-rendering="crispEdges"/>
</g>
<path d="M141.515 224.77L143.519 223.7L142.085 221.001L143.355 220.322L144.789 223.021L146.907 221.889L145.29 218.846L146.595 218.148L149.066 222.8L141.065 227.076L138.594 222.424L139.898 221.727L141.515 224.77Z" fill="white"/>
<path d="M143.394 209.352L141.06 212.132L144.497 212.933L145.102 214.897L139.897 213.514L136.463 217.615L135.847 215.613L138.168 212.837L134.747 212.045L134.142 210.081L139.331 211.456L142.778 207.351L143.394 209.352Z" fill="white"/>
<path d="M135.183 197.441C135.665 197.394 136.129 197.467 136.573 197.659C137.016 197.842 137.391 198.167 137.697 198.634C138.002 199.092 138.191 199.692 138.263 200.435L138.41 201.95L141.871 201.612L142.047 203.425L133.034 204.305L132.711 200.977C132.643 200.278 132.706 199.67 132.899 199.155C133.092 198.639 133.388 198.24 133.786 197.957C134.184 197.665 134.65 197.493 135.183 197.441ZM136.812 200.655C136.763 200.154 136.615 199.794 136.368 199.574C136.112 199.355 135.777 199.266 135.364 199.306C134.486 199.392 134.095 199.927 134.191 200.911L134.33 202.348L136.951 202.092L136.812 200.655Z" fill="white"/>
<path d="M140.174 190.926L140.4 187.943L141.836 188.052L141.472 192.852L132.442 192.162L132.58 190.346L140.174 190.926Z" fill="white"/>
<path d="M143.478 180.565C143.256 181.385 142.859 182.085 142.289 182.667C141.719 183.248 141.041 183.647 140.256 183.864C139.462 184.078 138.636 184.068 137.776 183.834C136.925 183.601 136.216 183.192 135.649 182.605C135.073 182.017 134.687 181.327 134.489 180.536C134.292 179.745 134.304 178.939 134.527 178.119C134.752 177.291 135.149 176.59 135.717 176.017C136.287 175.436 136.968 175.042 137.759 174.836C138.544 174.619 139.362 174.627 140.213 174.86C141.073 175.094 141.791 175.506 142.366 176.095C142.935 176.673 143.318 177.357 143.516 178.148C143.714 178.939 143.701 179.745 143.478 180.565ZM141.913 180.137C142.057 179.61 142.066 179.114 141.941 178.648C141.808 178.18 141.551 177.773 141.17 177.426C140.789 177.08 140.307 176.826 139.723 176.667C139.138 176.507 138.599 176.481 138.103 176.589C137.599 176.694 137.176 176.915 136.833 177.253C136.491 177.591 136.248 178.023 136.105 178.55C135.961 179.077 135.951 179.578 136.073 180.052C136.198 180.517 136.451 180.923 136.832 181.27C137.204 181.615 137.683 181.867 138.267 182.026C138.851 182.186 139.395 182.213 139.899 182.108C140.403 182.003 140.83 181.783 141.181 181.447C141.526 181.101 141.77 180.664 141.913 180.137Z" fill="white"/>
<path d="M148.189 168.602L144.137 168.756L143.744 169.519L146.879 171.144L146.046 172.762L137.999 168.591L139.559 165.564C139.881 164.94 140.266 164.466 140.715 164.142C141.157 163.815 141.621 163.641 142.109 163.62C142.593 163.588 143.066 163.691 143.527 163.93C144.057 164.205 144.458 164.608 144.73 165.139C144.994 165.666 145.049 166.276 144.897 166.968L149.154 166.73L148.189 168.602ZM142.533 168.891L143.23 167.539C143.456 167.1 143.521 166.719 143.425 166.396C143.321 166.069 143.081 165.807 142.704 165.612C142.335 165.421 141.995 165.381 141.684 165.494C141.366 165.602 141.093 165.875 140.867 166.314L140.17 167.667L142.533 168.891Z" fill="white"/>
<path d="M146.376 157.462L148.172 158.856L150.037 156.438L151.176 157.322L149.311 159.74L151.21 161.213L153.313 158.487L154.483 159.395L151.269 163.561L144.095 157.995L147.309 153.828L148.479 154.736L146.376 157.462Z" fill="white"/>
<path d="M164.691 148.075L161.75 150.166L162.262 151.924L160.707 153.031L158.115 143.722L159.839 142.495L167.742 148.027L166.176 149.14L164.691 148.075ZM163.448 147.172L160.188 144.832L161.311 148.692L163.448 147.172Z" fill="white"/>
<path d="M178.289 143.14L176.615 143.845L170.418 139.693L172.823 145.441L171.149 146.146L167.639 137.759L169.313 137.054L175.515 141.217L173.105 135.458L174.779 134.753L178.289 143.14Z" fill="white"/>
<path d="M183.834 132.421C184.771 132.253 185.625 132.288 186.397 132.528C187.178 132.766 187.821 133.192 188.327 133.806C188.839 134.41 189.176 135.16 189.336 136.056C189.497 136.953 189.442 137.773 189.172 138.518C188.908 139.253 188.452 139.869 187.802 140.365C187.162 140.859 186.373 141.191 185.437 141.36L182.322 141.922L180.719 132.983L183.834 132.421ZM185.1 139.848C186.036 139.679 186.714 139.292 187.133 138.688C187.551 138.083 187.677 137.316 187.511 136.385C187.344 135.455 186.958 134.775 186.354 134.347C185.749 133.909 184.978 133.775 184.041 133.944L182.777 134.172L183.836 140.076L185.1 139.848Z" fill="white"/>
<path d="M202.354 133.086L202.088 135.347L205.116 135.705L204.947 137.139L201.919 136.781L201.637 139.171L205.052 139.575L204.878 141.048L199.66 140.43L200.723 131.399L205.942 132.017L205.768 133.49L202.354 133.086Z" fill="white"/>
<path d="M216.118 144.148L214.389 143.589L212.379 136.393L210.474 142.324L208.745 141.765L211.525 133.111L213.254 133.669L215.26 140.877L217.169 134.934L218.898 135.493L216.118 144.148Z" fill="white"/>
<path d="M229.762 141.047L229.041 142.327L226.939 141.136L223.207 147.761L221.626 146.865L225.358 140.24L223.256 139.049L223.977 137.77L229.762 141.047Z" fill="white"/>
<path d="M234.769 146.538L233.322 148.291L235.671 150.242L234.753 151.354L232.404 149.403L230.874 151.257L233.522 153.456L232.579 154.598L228.531 151.237L234.313 144.234L238.361 147.595L237.418 148.737L234.769 146.538Z" fill="white"/>
<path d="M238.405 160.93L239.825 157.121L239.274 156.463L236.571 158.736L235.404 157.34L242.341 151.506L244.525 154.119C244.976 154.658 245.263 155.197 245.388 155.738C245.519 156.273 245.5 156.77 245.331 157.229C245.174 157.689 244.897 158.086 244.5 158.421C244.042 158.805 243.517 159.02 242.924 159.066C242.337 159.107 241.755 158.923 241.176 158.515L239.756 162.545L238.405 160.93ZM240.318 155.585L241.293 156.752C241.61 157.131 241.936 157.338 242.27 157.374C242.612 157.404 242.944 157.283 243.269 157.01C243.587 156.742 243.754 156.443 243.771 156.112C243.794 155.775 243.648 155.418 243.331 155.039L242.355 153.872L240.318 155.585Z" fill="white"/>
<path d="M255.328 172.614L253.982 173.195L253.028 170.972L246.058 173.981L245.34 172.308L252.309 169.299L251.355 167.076L252.701 166.494L255.328 172.614Z" fill="white"/>
<path d="M258.666 185.491L249.799 187.33L249.431 185.547L253.204 184.764L252.418 180.954L248.645 181.737L248.277 179.953L257.144 178.114L257.512 179.898L253.866 180.654L254.652 184.464L258.298 183.707L258.666 185.491Z" fill="white"/>
<path d="M257.782 193.517L255.512 193.54L255.542 196.597L254.102 196.611L254.072 193.554L251.672 193.577L251.705 197.025L250.226 197.039L250.175 191.77L259.243 191.681L259.294 196.95L257.816 196.965L257.782 193.517Z" fill="white"/>
<path d="M254.861 218.638L246.227 215.895L246.775 214.159L252.391 215.943L247.508 211.84L247.923 210.525L254.275 209.978L248.659 208.194L249.208 206.458L257.842 209.201L257.219 211.173L249.93 211.886L255.48 216.679L254.861 218.638Z" fill="white"/>
<path d="M249.916 225.208L247.948 224.072L246.428 226.722L245.179 226.002L246.699 223.352L244.618 222.151L242.904 225.139L241.622 224.399L244.241 219.833L252.104 224.369L249.485 228.936L248.202 228.196L249.916 225.208Z" fill="white"/>
<path d="M242.36 238.224L241.238 237.277L242.791 235.426L236.981 230.525L238.15 229.131L243.959 234.032L245.512 232.181L246.634 233.127L242.36 238.224Z" fill="white"/>
<path d="M229.371 240.003L232.199 237.76L231.597 236.031L233.093 234.846L236.163 244.007L234.505 245.322L226.326 240.21L227.832 239.016L229.371 240.003ZM230.658 240.84L234.036 243.006L232.714 239.21L230.658 240.84Z" fill="white"/>
<path d="M219.671 253.99L218.687 244.366L220.669 243.397L227.622 250.102L225.874 250.957L220.479 245.56L221.408 253.141L219.671 253.99Z" fill="white"/>
<path d="M212.717 254.672L212.125 252.474L209.182 253.271L208.807 251.876L211.75 251.079L211.124 248.755L207.806 249.654L207.42 248.222L212.492 246.849L214.856 255.63L209.784 257.003L209.399 255.571L212.717 254.672Z" fill="white"/>
<path d="M198.903 249.339L201.183 252.701L202.037 252.631L201.747 249.104L203.557 248.954L204.301 258.005L200.913 258.285C200.215 258.343 199.61 258.267 199.098 258.056C198.587 257.855 198.193 257.552 197.917 257.149C197.633 256.755 197.47 256.298 197.427 255.779C197.378 255.183 197.506 254.628 197.811 254.116C198.117 253.612 198.603 253.241 199.269 253.003L196.808 249.512L198.903 249.339ZM202.149 253.992L200.636 254.117C200.145 254.158 199.788 254.305 199.566 254.558C199.344 254.82 199.251 255.163 199.286 255.587C199.32 256.002 199.467 256.311 199.726 256.516C199.987 256.73 200.363 256.816 200.854 256.776L202.367 256.651L202.149 253.992Z" fill="white"/>
<path d="M189.913 248.992C190.54 249.063 191.095 249.235 191.578 249.507C192.053 249.779 192.413 250.134 192.66 250.572C192.907 251.01 193.004 251.505 192.95 252.058L191.016 251.84C191.032 251.466 190.936 251.159 190.728 250.917C190.512 250.674 190.197 250.53 189.785 250.483C189.363 250.436 189.021 250.498 188.758 250.669C188.495 250.848 188.344 251.102 188.308 251.429C188.278 251.697 188.335 251.926 188.479 252.116C188.623 252.307 188.814 252.464 189.053 252.587C189.282 252.718 189.604 252.867 190.021 253.036C190.586 253.275 191.044 253.497 191.395 253.702C191.737 253.915 192.022 254.205 192.251 254.571C192.47 254.945 192.548 255.416 192.484 255.985C192.424 256.519 192.239 256.97 191.928 257.336C191.617 257.702 191.209 257.962 190.705 258.114C190.199 258.276 189.637 258.321 189.018 258.252C188.09 258.147 187.363 257.834 186.839 257.312C186.304 256.798 186.053 256.132 186.083 255.316L188.069 255.539C188.051 255.852 188.156 256.121 188.383 256.347C188.601 256.581 188.911 256.721 189.315 256.767C189.668 256.806 189.961 256.748 190.197 256.591C190.423 256.433 190.556 256.182 190.594 255.837C190.622 255.596 190.567 255.385 190.431 255.203C190.285 255.03 190.101 254.878 189.881 254.749C189.651 254.627 189.328 254.477 188.913 254.299C188.348 254.061 187.89 253.835 187.54 253.621C187.189 253.407 186.9 253.112 186.673 252.738C186.445 252.363 186.362 251.895 186.425 251.335C186.479 250.852 186.654 250.418 186.95 250.033C187.245 249.647 187.648 249.356 188.157 249.161C188.666 248.974 189.251 248.918 189.913 248.992Z" fill="white"/>
<path d="M178.641 254.583L179.298 252.403L176.379 251.519L176.795 250.137L179.714 251.021L180.408 248.718L177.117 247.72L177.545 246.301L182.575 247.825L179.953 256.529L174.922 255.005L175.35 253.585L178.641 254.583Z" fill="white"/>
<g clip-path="url(#clip0_1_3587)">
<path d="M197.91 187.251C197.648 187.251 197.396 187.355 197.211 187.541C197.026 187.727 196.921 187.98 196.921 188.243V192.209C196.921 192.472 197.026 192.724 197.211 192.91C197.396 193.096 197.648 193.201 197.91 193.201C198.172 193.201 198.424 193.096 198.609 192.91C198.795 192.724 198.899 192.472 198.899 192.209V188.243C198.899 187.98 198.795 187.727 198.609 187.541C198.424 187.355 198.172 187.251 197.91 187.251Z" fill="white"/>
<path fill-rule="evenodd" clip-rule="evenodd" d="M190 190.226C190 188.122 190.833 186.104 192.317 184.616C193.8 183.129 195.812 182.293 197.91 182.293C200.008 182.293 202.02 183.129 203.503 184.616C204.987 186.104 205.82 188.122 205.82 190.226V198.159C205.82 200.263 204.987 202.281 203.503 203.769C202.02 205.256 200.008 206.092 197.91 206.092C195.812 206.092 193.8 205.256 192.317 203.769C190.833 202.281 190 200.263 190 198.159V190.226ZM203.843 190.226V198.159C203.843 199.737 203.218 201.25 202.105 202.366C200.992 203.482 199.484 204.109 197.91 204.109C196.337 204.109 194.828 203.482 193.715 202.366C192.603 201.25 191.978 199.737 191.978 198.159V190.226C191.978 188.648 192.603 187.135 193.715 186.019C194.828 184.903 196.337 184.276 197.91 184.276C199.484 184.276 200.992 184.903 202.105 186.019C203.218 187.135 203.843 188.648 203.843 190.226V190.226Z" fill="white"/>
</g>
<defs>
<filter id="filter0_bd_1_3587" x="0.787506" y="0.844238" width="393.257" height="393.705" filterUnits="userSpaceOnUse" color-interpolation-filters="sRGB">
<feFlood flood-opacity="0" result="BackgroundImageFix"/>
<feGaussianBlur in="BackgroundImageFix" stdDeviation="24"/>
<feComposite in2="SourceAlpha" operator="in" result="effect1_backgroundBlur_1_3587"/>
<feColorMatrix in="SourceAlpha" type="matrix" values="0 0 0 0 0 0 0 0 0 0 0 0 0 0 0 0 0 0 127 0" result="hardAlpha"/>
<feOffset dy="4"/>
<feGaussianBlur stdDeviation="60"/>
<feComposite in2="hardAlpha" operator="out"/>
<feColorMatrix type="matrix" values="0 0 0 0 0 0 0 0 0 0 0 0 0 0 0 0 0 0 0.25 0"/>
<feBlend mode="normal" in2="effect1_backgroundBlur_1_3587" result="effect2_dropShadow_1_3587"/>
<feBlend mode="normal" in="SourceGraphic" in2="effect2_dropShadow_1_3587" result="shape"/>
</filter>
<clipPath id="clip0_1_3587">
<rect width="23.73" height="23.7995" fill="white" transform="translate(186.045 182.293)"/>
</clipPath>
</defs>
</svg>
